<?xml version="1.0" encoding="UTF-8" standalone="no" ?>
<!DOCTYPE svg PUBLIC "-//W3C//DTD SVG 1.1//EN" "http://www.w3.org/Graphics/SVG/1.1/DTD/svg11.dtd">
<svg xmlns="http://www.w3.org/2000/svg" xmlns:xlink="http://www.w3.org/1999/xlink" version="1.1" width="250" height="90" viewBox="0 0 250 90" xml:space="preserve">
<desc>Created with Fabric.js 4.6.0</desc>
<defs>
</defs>
<g transform="matrix(1 0 0 1 124.93 45.06)" id="0BtAYWEJZJlJjpaKR5Axd"  >
<path style="stroke: none; stroke-width: 1; stroke-dasharray: none; stroke-linecap: butt; stroke-dashoffset: 0; stroke-linejoin: miter; stroke-miterlimit: 4; fill: rgb(0,0,0); fill-rule: nonzero; opacity: 1;" vector-effect="non-scaling-stroke"  transform=" translate(-124.93, -45.06)" d="M 25.75 68.344 L 25.75 62.524 L 21.967 62.524 L 21.967 34.976 C 23.616 32.745 26.041 30.902 28.854 30.902 C 33.413 30.902 34.868 33.23 34.868 37.692 L 34.868 62.524 L 31.182 62.524 L 31.182 68.344 L 56.111 68.344 L 56.111 62.524 L 52.619 62.524 L 52.619 32.648 C 52.619 26.731 49.903 19.262 39.524 19.262 C 32.055 19.262 27.496 22.851 21.967 27.507 L 21.967 8.301 L 25.556 7.04 L 25.556 0.541 L 0.821 9.077 L 0.821 14.994 L 4.216 13.83 L 4.216 62.524 L 0.627 62.524 L 0.627 68.344 Z M 88.315 68.344 L 88.315 62.524 L 85.114 62.524 L 85.114 19.262 L 63.871 25.276 L 63.871 30.805 L 67.363 30.126 L 67.363 62.524 L 63.677 62.524 L 63.677 68.344 Z M 66.781 13.054 C 66.781 17.031 69.497 19.068 73.377 19.068 C 78.227 19.068 85.89 16.934 85.89 10.823 C 85.89 5.779 81.428 4.712 77.257 4.712 C 73.086 4.712 66.781 8.301 66.781 13.054 Z M 134.778 49.526 C 131.577 53.212 127.891 55.831 122.847 55.831 C 113.438 55.831 110.043 44.87 110.043 37.013 C 110.043 33.812 110.431 28.38 114.796 28.38 C 120.422 28.38 123.72 38.177 124.884 42.639 L 138.852 29.447 C 134.002 23.045 129.152 19.262 120.81 19.262 C 107.424 19.262 94.523 31.096 94.523 46.616 C 94.523 59.808 103.059 69.799 116.639 69.799 C 126.921 69.799 134.778 62.33 138.949 53.503 Z M 174.548 51.369 L 169.31 39.923 C 168.728 38.662 168.437 37.595 168.437 36.722 C 168.437 34.976 168.825 33.133 171.638 33.133 C 173.384 33.133 177.846 34.879 179.204 34.879 C 179.98 34.879 180.562 34.588 181.241 34.491 Z M 141.18 30.514 L 143.799 36.14 L 146.806 34.006 L 162.52 67.956 C 163.49 70.09 164.363 72.127 164.363 73.194 C 164.363 75.522 162.714 76.395 160.483 76.492 C 157.67 76.492 153.693 75.037 151.074 73.873 L 148.552 88.326 C 150.686 89.199 153.208 89.587 155.536 89.587 C 164.072 89.587 168.437 85.319 171.638 77.947 L 195.694 22.948 L 192.881 19.941 C 192.202 20.911 191.135 21.299 189.777 21.299 C 185.703 21.299 184.151 19.262 179.689 19.262 C 173.287 19.262 167.855 27.507 166.497 32.454 L 166.303 32.454 L 160.677 19.262 Z M 228.383 52.533 C 228.383 56.219 227.51 59.614 223.048 59.614 C 218.295 59.614 217.228 55.346 217.228 51.563 C 217.228 46.616 220.72 43.221 225.57 43.221 L 228.383 43.221 Z M 229.741 68.344 L 249.238 68.344 L 249.238 62.524 L 246.134 62.524 L 246.134 35.364 C 246.134 23.918 238.956 19.262 228.092 19.262 C 224.115 19.262 219.944 19.941 216.355 21.493 L 217.228 18.874 L 211.408 16.934 L 205.2 33.812 L 211.214 36.043 C 213.833 32.648 216.355 28.574 221.981 28.574 C 226.249 28.574 228.383 30.999 228.383 34.976 L 228.383 37.401 L 215.094 37.401 C 206.461 37.401 199.477 43.803 199.477 55.055 C 199.477 64.076 206.073 69.799 214.9 69.799 C 220.429 69.799 224.697 67.18 228.674 63.785 Z" stroke-linecap="round" />
</g>
</svg>